<?xml version="1.0" encoding="utf-8"?>
<!-- Generator: Adobe Illustrator 24.2.1, SVG Export Plug-In . SVG Version: 6.00 Build 0)  -->
<svg version="1.1" id="Ebene_1" xmlns="http://www.w3.org/2000/svg" xmlns:xlink="http://www.w3.org/1999/xlink" x="0px" y="0px"
	 viewBox="0 0 283.46 283.46" style="enable-background:new 0 0 283.46 283.46;" xml:space="preserve">
<style type="text/css">
	.st0{fill:#89B6E2;}
	.st1{clip-path:url(#SVGID_2_);fill:#FFFFFF;}
</style>
<g>
	<path class="st0" d="M141.53,273.12c72.12,0,130.59-58.47,130.59-130.59S213.65,11.95,141.53,11.95S10.94,70.41,10.94,142.53
		S69.41,273.12,141.53,273.12"/>
</g>
<g>
	<defs>
		<circle id="SVGID_1_" cx="141.53" cy="142.53" r="130.58"/>
	</defs>
	<clipPath id="SVGID_2_">
		<use xlink:href="#SVGID_1_"  style="overflow:visible;"/>
	</clipPath>
	<path class="st1" d="M41.04,18.02h27.59c0,4.49-0.09,8.74,0.01,12.99c0.36,15.32,0.77,30.64,1.17,45.96
		c0.17,6.8,1.65,13.31,4.6,19.42c2.76,5.7,2.77,11.09-1.2,16.17c-3.07,3.92-5.91,8.17-9.57,11.46c-4.91,4.42-10.33,4.31-15.9,0.83
		c-10.27-6.42-13.37-12.39-9.98-24.22c3.25-11.36,2.97-22.75,3.01-34.23c0.05-14.15-0.12-28.31-0.15-42.46
		C40.62,22.09,40.88,20.23,41.04,18.02"/>
	<path class="st1" d="M85.09,159.36c2.7,4.09,1.86,6.46-1.99,7.8c-0.68,0.24-1.38,0.5-2.08,0.56c-8.26,0.73-13.54,4.96-16.38,12.86
		c-1.45,4.04-5.21,6.14-9.41,7.04c-9.66,2.09-20.06-3.15-23.25-12.57c-4.19-12.36,1.43-18.12,13.53-20.39
		c3.45-0.65,7.03-1.19,10.17-2.62c3.2-1.45,5.6-1.59,8.56,0.51C70.39,156.92,77.1,160.04,85.09,159.36"/>
	<path class="st1" d="M41.27,130.55c17.86,7.48,25.7,4.73,37.81-12.63c5.11,0.9,9.87,1.94,14.68,2.52c2.55,0.3,4.76,0.53,5.7,3.31
		c0.98,2.89,1.42,6.34-1.16,7.97c-4.83,3.05-6.04,7.7-7.47,12.55c-2.06,6.99-5.42,9.07-12.31,7.02c-3.6-1.07-7.14-2.9-10.2-5.1
		c-5.06-3.62-9.82-4.11-15.35-1.09c-6.09,3.32-8.18,2.39-10.42-4.26C41.45,137.61,39.74,134.26,41.27,130.55"/>
	<path class="st1" d="M90.39,158.04c4.78-3.3,6.9-7.98,8.14-13.25c0.42-1.8,1.28-3.6,2.34-5.13c2.63-3.81,5.49-7.47,8.84-11.98
		c9.21-1,13.48,2.74,12.72,13.18c-0.61,8.45-2.65,16.59-8.57,23.09C106.33,172.21,94.51,169.55,90.39,158.04"/>
	<path class="st1" d="M197.59,164.92c0.17,2.55,0.63,4.69,0.4,6.75c-0.77,6.9-4.74,9.67-10.88,6.5c-9.43-4.87-18.91-6.09-29.12-3.59
		c-2.48,0.61-5.17,0.36-9.38,0.59c8.67-9.23,11.33-19.22,9.72-31.65c2.94,1.6,4.86,2.36,6.45,3.55c2.85,2.16,5.59,4.5,8.24,6.91
		C179.72,160.13,187.31,164.32,197.59,164.92"/>
	<path class="st1" d="M131.51,137.52c2.63,0,5.51-0.23,8.35,0.04c7.55,0.72,11.02,4.43,11.43,12.11c0.11,2.14,0.04,4.34-0.37,6.43
		c-3,14.95-15.95,19.3-27.36,9.9C126.22,156.43,128.82,147.14,131.51,137.52"/>
	<path class="st1" d="M202.89,182.78c1.38-5.92,2.54-10.92,3.86-16.59c1.44,0.29,3.26,0.42,4.92,1.02
		c4.26,1.55,8.43,3.31,12.65,4.99c3.27,1.3,4.71,3.91,3.53,6.7c-1.29,3.07-3.75,2.34-6.1,1.65c-1.14-0.34-2.29-0.73-3.35-1.27
		c-3.32-1.7-6.39-1.32-9.5,0.63C207.2,180.99,205.25,181.68,202.89,182.78"/>
	<path class="st1" d="M234.75,183.62c0.53-2.17,0.91-3.74,1.34-5.48c3.27,0.55,6.34,0.78,9.18,1.69c1.19,0.38,1.91,2.23,2.84,3.41
		c-1.2,0.93-2.47,2.72-3.58,2.62C241.49,185.61,238.51,184.55,234.75,183.62"/>
</g>
</svg>
