<?xml version="1.0" encoding="utf-8"?>
<!-- Generator: Adobe Illustrator 24.2.1, SVG Export Plug-In . SVG Version: 6.00 Build 0)  -->
<svg version="1.1" id="Ebene_1" xmlns="http://www.w3.org/2000/svg" xmlns:xlink="http://www.w3.org/1999/xlink" x="0px" y="0px"
	 viewBox="0 0 841.89 290.87" style="enable-background:new 0 0 841.89 290.87;" xml:space="preserve">
<style type="text/css">
	.st0{fill:#82C2B9;}
	.st1{clip-path:url(#SVGID_2_);fill:#FFFFFF;}
	.st2{fill:#9D82AF;}
	.st3{clip-path:url(#SVGID_4_);fill:#FFFFFF;}
	.st4{fill:#89B6E2;}
	.st5{clip-path:url(#SVGID_6_);fill:#FFFFFF;}
</style>
<g>
	<path class="st0" d="M136.58,277.28c72.12,0,130.58-58.47,130.58-130.58S208.7,16.11,136.58,16.11S6,74.57,6,146.69
		S64.47,277.28,136.58,277.28"/>
</g>
<g>
	<defs>
		<circle id="SVGID_1_" cx="136.58" cy="146.69" r="130.58"/>
	</defs>
	<clipPath id="SVGID_2_">
		<use xlink:href="#SVGID_1_"  style="overflow:visible;"/>
	</clipPath>
	<path class="st1" d="M97.34,234.42c9.2-1.66,16.08-3.24,23.05-4.06c7.44-0.87,14.97-1.01,22.46-1.46
		c6.31-0.39,11.81,1.6,16.58,5.68c3.06,2.61,6.11,5.25,9.87,8.48c1.71-4.43,2.51-8.05,4.38-11.01c4.34-6.9,12.86-6.62,16.07,0.33
		c1.95,4.24,1.06,10.56,7.01,11.84c4.65,1,9.62,0.42,14.46,0.57c1.1,0.04,2.2,0.22,3.24,0.33c4.23,12.3,2.67,14.87-9.35,16.02
		c-7.46,0.71-14.89,1.84-22.36,2.32c-5.02,0.33-5.05-0.03-10.73-6.07c-2.32,4.02-4.59,7.77-6.67,11.61
		c-2.68,4.93-6.21,7.77-12.31,8.21c-13.46,0.95-26.83,3.04-40.28,4.03c-10.24,0.75-13.02-3.89-8.47-12.9c0.5-1,1.2-1.9,1.78-2.86
		c6.09-9.98,5.76-13.88-1.89-22.97C102.55,240.56,100.9,238.62,97.34,234.42"/>
	<path class="st1" d="M208.08,192.5c-0.37,4.94-0.68,9.17-1.1,14.74c-14.74-2.29-29.07,7.7-42.96-3.89
		c-2.31,3.55-4.22,7.73-7.26,10.79c-2.68,2.7-6.46,5.57-10.01,5.92c-13.05,1.3-26.2,1.84-39.32,2.07c-3.36,0.06-8.39-1.13-9.67-3.42
		c-1.34-2.39,0.04-7.3,1.73-10.24c8.05-13.93,8.21-14.02-1.26-26.58c-0.86-1.14-1.48-2.46-2.7-4.52c2.8-1.1,5.04-2.67,7.35-2.78
		c13.1-0.6,26.23-1.34,39.31-0.92c3.98,0.13,8.07,3.49,11.7,5.96c3.01,2.04,5.42,4.96,8.82,8.17c1.91-3.85,3.08-7.3,5.13-10.12
		c4.56-6.28,14.08-5.91,14.96,0.97c1.71,13.37,9.98,13.93,20.02,13.21C203.92,191.78,205.05,192.12,208.08,192.5"/>
	<path class="st1" d="M165,151.68c-14.68,13.92-14.68,13.96-34.69,12.1c-7.46-0.69-14.98-1.24-22.32-2.66
		c-3.28-0.64-7.44-2.6-8.83-5.22c-1.01-1.9,1.2-6.41,3.14-8.82c9.71-12.08,9.85-11.97,1.56-28.75c2.54-3.55,6.33-3.15,9.95-2.72
		c10.05,1.19,20.24,1.82,30.05,4.11c5.07,1.18,9.73,5.03,14,8.4c2.81,2.21,4.61,5.72,7.24,9.14c2.55-3.44,4.29-6.74,6.89-9.09
		c5.44-4.91,13.53-2.76,13.52,4.07c-0.02,11.16,5.65,14.37,15.22,14.7c1.75,0.06,3.47,1.12,5.06,1.68
		c0.64,11.96-1.18,13.8-12.07,12.62c-5.21-0.57-10.42-1.39-15.65-1.66C172.27,159.26,167.07,158.24,165,151.68"/>
	<path class="st1" d="M213.61,104.79c-3.47,12.16-3.5,12.19-14.51,9.43c-4.74-1.19-9.42-2.61-14.19-3.64
		c-5.62-1.2-10.67-3.01-12.62-11.33c-9.47,14.95-21.15,12.91-33.66,8.42c-8.11-2.91-16.71-4.45-24.89-7.21
		c-6.27-2.11-6.99-6.17-2.66-11.17c0.73-0.85,1.64-1.54,2.49-2.28c11.13-9.63,11.14-9.66,6.45-23.88c-0.34-1.04-0.41-2.16-0.66-3.57
		c0.95-0.5,1.99-1.54,2.7-1.36c13.38,3.44,26.87,6.6,39.99,10.87c3.38,1.1,5.84,5.59,8.29,8.84c1.95,2.59,3.25,5.67,4.78,8.43
		c2.91-2.54,5.14-4.97,7.81-6.74c5.68-3.76,13.72-1.01,12.73,4.7c-2.29,13.22,6.05,16.1,15.51,18.81
		C211.85,103.32,212.39,103.94,213.61,104.79"/>
	<path class="st1" d="M141.85,3.96c3.61,0.41,5.88,0.25,7.84,0.96c4.59,1.66,9.09,3.58,13.51,5.65
		c21.52,10.06,21.51,10.1,31.01,30.06c2.99-2.07,5.71-4.61,8.92-6.03c6.22-2.74,12.99,1.71,10.81,7.7
		c-4.33,11.89,2.89,15.52,11.12,19.34c0.67,0.31,1.29,0.79,1.87,1.26c0.28,0.22,0.41,0.62,0.61,0.94
		c-2.2,11.09-4.04,12.19-13.82,8.16c-4.86-2-9.63-4.24-14.53-6.16c-5.39-2.12-10.09-4.79-10.46-13.25
		c-11.63,13.08-22.87,9.77-34.58,3.18c-6.52-3.67-13.81-5.97-20.39-9.56c-2.95-1.61-7.02-4.96-6.91-7.35
		c0.13-2.76,4.21-5.44,6.79-7.92c1.04-1,2.67-1.35,3.99-2.07c5.33-2.91,6.89-7.74,6.36-13.36C143.66,12.19,142.79,8.92,141.85,3.96"
		/>
</g>
<g>
	<path class="st2" d="M418,277.28c72.12,0,130.59-58.47,130.59-130.58S490.12,16.11,418,16.11S287.42,74.57,287.42,146.69
		S345.88,277.28,418,277.28"/>
</g>
<g>
	<defs>
		<circle id="SVGID_3_" cx="418" cy="146.69" r="130.58"/>
	</defs>
	<clipPath id="SVGID_4_">
		<use xlink:href="#SVGID_3_"  style="overflow:visible;"/>
	</clipPath>
	<path class="st3" d="M309.95,21.65c19.2,0,35.96,0.07,52.72-0.05c3.87-0.02,6.11,1.95,8.27,4.74c6.36,8.24,13.13,16.18,19.26,24.59
		c6.04,8.28,13.91,13.22,23.7,15.87c6.44,1.74,12.81,4.05,18.88,6.81c7.05,3.2,11.8,8.76,13.55,16.54
		c2.48,10.98-0.77,19.88-11.08,24.26c-13.76,5.85-24.95,14.37-33.42,26.52c-10.01,14.35-38.4,9.91-43.36-8.38
		c-2.13-7.88-2.54-16.62-1.75-24.78c0.72-7.42,0.23-14.17-3.56-20.29c-10.76-17.4-21.82-34.61-32.9-51.82
		C317.58,31.51,314.4,27.67,309.95,21.65"/>
	<path class="st3" d="M390.43,271.78h-44.91c4.24-14.87,6.26-29.59,13.88-42.52c2.17-3.69,5.2-7.05,8.42-9.91
		c9.44-8.39,13.69-18.59,9.57-30.68c-4.1-12.04-14.18-17.32-26.17-19.29c-2.89-0.47-5.87-0.44-8.84-0.64
		c2.07-12.41,10.66-18.02,21.41-14.3c1.9,0.66,3.66,1.7,5.54,2.4c12.67,4.76,24.45,3.41,34.9-5.5c3.82-3.26,7.18-7.06,10.85-10.51
		c8.85-8.32,18.5-7.64,26.11,1.76c11.06,13.68,10.46,29.18-2.18,41.61c-5,4.92-10.58,9.43-16.51,13.16
		c-10.9,6.84-17.54,16.5-20.76,28.63c-3.27,12.32-6.14,24.76-9.18,37.15C391.85,266.02,391.14,268.89,390.43,271.78"/>
	<path class="st3" d="M336.74,271.78h-7.34c-0.17-1.31-0.55-2.29-0.38-3.15c3.55-18.05,7.5-36.03,10.62-54.15
		c1.57-9.13,2.03-18.51,2.3-27.8c0.24-8.26,2.09-10.44,10.15-8.71c7.86,1.69,14.82,5.41,17.47,13.48c2.65,8.04,0.14,15.28-6.46,20.7
		c-10.34,8.49-15.43,19.98-18.96,32.4C341.59,253.53,339.24,262.56,336.74,271.78"/>
	<path class="st3" d="M449.37,68.64c2.48,1.85,5.44,3.29,7.35,5.61c11.94,14.48,18.45,30.9,16.66,49.97
		c-0.31,3.28-1.09,6.63-2.32,9.68c-3.29,8.15-9.15,11.43-16.36,9.65c-7.29-1.81-14-9.8-13.48-16.71c0.15-2.05,1.41-4.55,2.99-5.87
		c12.5-10.51,12.53-23.47,7.75-37.44c-1.47-4.29-3.25-8.48-4.89-12.71C447.83,70.09,448.6,69.37,449.37,68.64"/>
</g>
<g>
	<path class="st4" d="M699.41,277.28c72.12,0,130.59-58.47,130.59-130.58S771.53,16.11,699.41,16.11S568.83,74.57,568.83,146.69
		S627.3,277.28,699.41,277.28"/>
</g>
<g>
	<defs>
		<circle id="SVGID_5_" cx="699.41" cy="146.69" r="130.58"/>
	</defs>
	<clipPath id="SVGID_6_">
		<use xlink:href="#SVGID_5_"  style="overflow:visible;"/>
	</clipPath>
	<path class="st5" d="M598.93,22.18h27.59c0,4.49-0.09,8.74,0.01,12.99c0.36,15.32,0.77,30.64,1.17,45.96
		c0.17,6.8,1.65,13.31,4.6,19.42c2.76,5.7,2.77,11.09-1.2,16.17c-3.07,3.92-5.91,8.17-9.57,11.46c-4.91,4.42-10.33,4.31-15.9,0.83
		c-10.27-6.42-13.37-12.39-9.98-24.22c3.25-11.36,2.97-22.75,3.01-34.23c0.05-14.15-0.12-28.31-0.15-42.46
		C598.51,26.25,598.77,24.39,598.93,22.18"/>
	<path class="st5" d="M642.98,163.52c2.7,4.09,1.86,6.46-1.99,7.8c-0.68,0.24-1.38,0.5-2.08,0.56c-8.26,0.73-13.54,4.96-16.38,12.86
		c-1.45,4.04-5.21,6.14-9.41,7.04c-9.66,2.09-20.06-3.15-23.25-12.57c-4.19-12.36,1.43-18.12,13.53-20.39
		c3.45-0.65,7.03-1.19,10.17-2.62c3.2-1.45,5.6-1.59,8.56,0.51C628.28,161.08,634.98,164.2,642.98,163.52"/>
	<path class="st5" d="M599.16,134.71c17.86,7.48,25.7,4.73,37.81-12.63c5.11,0.9,9.87,1.94,14.68,2.52c2.55,0.3,4.76,0.53,5.7,3.31
		c0.98,2.89,1.42,6.34-1.16,7.97c-4.83,3.05-6.04,7.7-7.47,12.55c-2.06,6.99-5.42,9.07-12.31,7.02c-3.6-1.07-7.14-2.9-10.2-5.1
		c-5.06-3.62-9.82-4.11-15.35-1.09c-6.09,3.32-8.18,2.39-10.42-4.26C599.34,141.77,597.63,138.42,599.16,134.71"/>
	<path class="st5" d="M648.28,162.2c4.78-3.3,6.9-7.98,8.14-13.25c0.42-1.8,1.28-3.6,2.34-5.13c2.63-3.81,5.49-7.47,8.84-11.98
		c9.21-1,13.48,2.74,12.72,13.18c-0.61,8.45-2.65,16.59-8.57,23.09C664.21,176.37,652.4,173.71,648.28,162.2"/>
	<path class="st5" d="M755.48,169.08c0.17,2.55,0.63,4.69,0.4,6.75c-0.77,6.9-4.74,9.67-10.88,6.5c-9.43-4.87-18.91-6.09-29.12-3.59
		c-2.48,0.61-5.17,0.36-9.38,0.59c8.67-9.23,11.33-19.22,9.72-31.65c2.94,1.6,4.86,2.36,6.45,3.55c2.85,2.16,5.59,4.5,8.24,6.91
		C737.61,164.28,745.2,168.48,755.48,169.08"/>
	<path class="st5" d="M689.39,141.68c2.63,0,5.51-0.23,8.35,0.04c7.55,0.72,11.02,4.43,11.43,12.11c0.11,2.14,0.04,4.34-0.37,6.43
		c-3,14.95-15.95,19.3-27.36,9.9C684.11,160.59,686.7,151.3,689.39,141.68"/>
	<path class="st5" d="M760.78,186.94c1.38-5.92,2.54-10.92,3.86-16.59c1.44,0.29,3.26,0.42,4.92,1.02
		c4.26,1.55,8.43,3.31,12.65,4.99c3.27,1.3,4.71,3.91,3.53,6.7c-1.29,3.07-3.75,2.34-6.1,1.65c-1.14-0.34-2.29-0.73-3.35-1.27
		c-3.32-1.7-6.39-1.32-9.5,0.63C765.08,185.15,763.14,185.84,760.78,186.94"/>
	<path class="st5" d="M792.64,187.78c0.53-2.17,0.91-3.74,1.34-5.48c3.27,0.55,6.34,0.78,9.18,1.69c1.19,0.38,1.91,2.23,2.84,3.41
		c-1.2,0.93-2.47,2.72-3.58,2.62C799.37,189.76,796.4,188.71,792.64,187.78"/>
</g>
</svg>
