<svg id="visual" viewBox="0 0 900 600" width="900" height="600" xmlns="http://www.w3.org/2000/svg" xmlns:xlink="http://www.w3.org/1999/xlink" version="1.1"><rect x="0" y="0" width="900" height="600" fill="#fff"></rect><path d="M0 221L15 216.8C30 212.7 60 204.3 90 201.2C120 198 150 200 180 204.5C210 209 240 216 270 211.2C300 206.3 330 189.7 360 191.2C390 192.7 420 212.3 450 216.3C480 220.3 510 208.7 540 198.5C570 188.3 600 179.7 630 185.7C660 191.7 690 212.3 720 212.3C750 212.3 780 191.7 810 188.8C840 186 870 201 885 208.5L900 216L900 0L885 0C870 0 840 0 810 0C780 0 750 0 720 0C690 0 660 0 630 0C600 0 570 0 540 0C510 0 480 0 450 0C420 0 390 0 360 0C330 0 300 0 270 0C240 0 210 0 180 0C150 0 120 0 90 0C60 0 30 0 15 0L0 0Z" fill="#91ccf4" stroke-linecap="round" stroke-linejoin="miter"></path></svg>