<?xml version="1.0" encoding="utf-8"?>
<!-- Generator: Adobe Illustrator 24.2.1, SVG Export Plug-In . SVG Version: 6.00 Build 0)  -->
<svg version="1.1" id="Ebene_1" xmlns="http://www.w3.org/2000/svg" xmlns:xlink="http://www.w3.org/1999/xlink" x="0px" y="0px"
	 viewBox="0 0 283.46 283.46" style="enable-background:new 0 0 283.46 283.46;" xml:space="preserve">
<style type="text/css">
	.st0{fill:#82C2B9;}
	.st1{clip-path:url(#SVGID_2_);fill:#FFFFFF;}
</style>
<g>
	<path class="st0" d="M141.53,272.83c72.12,0,130.58-58.47,130.58-130.59S213.65,11.66,141.53,11.66S10.94,70.13,10.94,142.24
		S69.41,272.83,141.53,272.83"/>
</g>
<g>
	<defs>
		<circle id="SVGID_1_" cx="141.53" cy="142.24" r="130.58"/>
	</defs>
	<clipPath id="SVGID_2_">
		<use xlink:href="#SVGID_1_"  style="overflow:visible;"/>
	</clipPath>
	<path class="st1" d="M102.29,229.97c9.2-1.66,16.08-3.24,23.05-4.06c7.44-0.87,14.97-1.01,22.46-1.46
		c6.31-0.39,11.81,1.6,16.58,5.68c3.06,2.61,6.11,5.25,9.87,8.48c1.71-4.43,2.51-8.05,4.38-11.01c4.34-6.9,12.86-6.62,16.07,0.33
		c1.95,4.24,1.06,10.56,7.01,11.84c4.65,1,9.62,0.42,14.46,0.57c1.1,0.04,2.2,0.22,3.24,0.33c4.23,12.3,2.67,14.87-9.35,16.02
		c-7.46,0.71-14.89,1.84-22.36,2.32c-5.02,0.33-5.05-0.03-10.73-6.07c-2.32,4.02-4.59,7.77-6.67,11.61
		c-2.68,4.93-6.21,7.77-12.31,8.21c-13.46,0.95-26.83,3.04-40.28,4.03c-10.24,0.75-13.02-3.89-8.47-12.9c0.5-1,1.2-1.9,1.78-2.86
		c6.09-9.98,5.76-13.88-1.89-22.97C107.5,236.11,105.85,234.17,102.29,229.97"/>
	<path class="st1" d="M213.02,188.05c-0.37,4.94-0.68,9.17-1.1,14.74c-14.74-2.29-29.07,7.7-42.96-3.89
		c-2.31,3.55-4.22,7.73-7.26,10.79c-2.68,2.7-6.46,5.57-10.01,5.92c-13.05,1.3-26.2,1.84-39.32,2.07c-3.36,0.06-8.39-1.13-9.67-3.42
		c-1.34-2.39,0.04-7.3,1.73-10.24c8.05-13.93,8.21-14.02-1.26-26.58c-0.86-1.14-1.48-2.46-2.7-4.52c2.8-1.1,5.04-2.67,7.35-2.78
		c13.1-0.6,26.23-1.34,39.31-0.92c3.98,0.13,8.07,3.49,11.7,5.96c3.01,2.04,5.42,4.96,8.82,8.17c1.91-3.85,3.08-7.3,5.13-10.12
		c4.56-6.28,14.08-5.91,14.96,0.97c1.71,13.37,9.98,13.93,20.02,13.21C208.86,187.34,209.99,187.67,213.02,188.05"/>
	<path class="st1" d="M169.94,147.23c-14.68,13.92-14.68,13.96-34.69,12.1c-7.46-0.69-14.98-1.24-22.32-2.66
		c-3.28-0.64-7.44-2.6-8.83-5.22c-1.01-1.9,1.2-6.41,3.14-8.82c9.71-12.08,9.85-11.97,1.56-28.75c2.54-3.55,6.33-3.15,9.95-2.72
		c10.05,1.19,20.24,1.82,30.05,4.11c5.07,1.18,9.73,5.03,14,8.4c2.81,2.21,4.61,5.72,7.24,9.14c2.55-3.44,4.29-6.74,6.89-9.09
		c5.44-4.91,13.53-2.76,13.52,4.07c-0.02,11.16,5.65,14.37,15.22,14.7c1.75,0.06,3.47,1.12,5.06,1.68
		c0.64,11.96-1.18,13.8-12.07,12.62c-5.21-0.57-10.42-1.39-15.65-1.66C177.21,154.81,172.01,153.79,169.94,147.23"/>
	<path class="st1" d="M218.56,100.35c-3.47,12.16-3.5,12.19-14.51,9.43c-4.74-1.19-9.42-2.61-14.19-3.64
		c-5.62-1.2-10.67-3.01-12.62-11.33c-9.47,14.95-21.15,12.91-33.66,8.42c-8.11-2.91-16.71-4.45-24.89-7.21
		c-6.27-2.11-6.99-6.17-2.66-11.17c0.73-0.85,1.64-1.54,2.49-2.28c11.13-9.63,11.14-9.66,6.45-23.88c-0.34-1.04-0.41-2.16-0.66-3.57
		c0.95-0.5,1.99-1.54,2.7-1.36c13.38,3.44,26.87,6.6,39.99,10.87c3.38,1.1,5.84,5.59,8.29,8.84c1.95,2.59,3.25,5.67,4.78,8.43
		c2.91-2.54,5.14-4.97,7.81-6.74c5.68-3.76,13.72-1.01,12.73,4.7c-2.29,13.22,6.05,16.1,15.51,18.81
		C216.79,98.87,217.34,99.49,218.56,100.35"/>
	<path class="st1" d="M146.8-0.49c3.61,0.41,5.88,0.25,7.84,0.96c4.59,1.66,9.09,3.58,13.51,5.65
		c21.52,10.06,21.51,10.1,31.01,30.06c2.99-2.07,5.71-4.61,8.92-6.03c6.22-2.74,12.99,1.71,10.81,7.7
		c-4.33,11.89,2.89,15.52,11.12,19.34c0.67,0.31,1.29,0.79,1.87,1.26c0.28,0.22,0.41,0.62,0.61,0.94
		c-2.2,11.09-4.04,12.19-13.82,8.16c-4.86-2-9.63-4.24-14.53-6.16c-5.39-2.12-10.09-4.79-10.46-13.25
		c-11.63,13.08-22.87,9.77-34.58,3.18c-6.52-3.67-13.81-5.97-20.39-9.56c-2.95-1.61-7.02-4.96-6.91-7.35
		c0.13-2.76,4.21-5.44,6.79-7.92c1.04-1,2.67-1.35,3.99-2.07c5.33-2.91,6.89-7.74,6.36-13.36C148.6,7.74,147.73,4.48,146.8-0.49"/>
</g>
</svg>
