<?xml version="1.0" encoding="utf-8"?>
<!-- Generator: Adobe Illustrator 24.2.1, SVG Export Plug-In . SVG Version: 6.00 Build 0)  -->
<svg version="1.1" id="Ebene_1" xmlns="http://www.w3.org/2000/svg" xmlns:xlink="http://www.w3.org/1999/xlink" x="0px" y="0px"
	 viewBox="0 0 841.89 595.28" style="enable-background:new 0 0 841.89 595.28;" xml:space="preserve">
<style type="text/css">
	.st0{fill:#9D82AF;}
	.st1{fill:#1D1D1B;}
</style>
<g>
	<path class="st0" d="M734.32,382.64c2.62-0.91,4.91-2.19,6.86-3.83c1.95-1.64,3.52-3.61,4.72-5.9c1.19-2.3,1.9-4.82,2.1-7.59
		h-10.42c-0.26,1.41-0.73,2.69-1.41,3.83c-0.69,1.13-1.54,2.1-2.56,2.91c-1.02,0.8-2.18,1.43-3.51,1.87
		c-1.32,0.43-2.76,0.65-4.29,0.65c-2.03,0-3.85-0.41-5.46-1.23c-1.61-0.81-2.98-1.97-4.11-3.47c-1.13-1.5-2-3.33-2.61-5.49
		c-0.6-2.16-0.9-4.59-0.9-7.29c0-2.7,0.3-5.12,0.9-7.27c0.6-2.15,1.47-3.98,2.61-5.49c1.13-1.51,2.51-2.67,4.11-3.47
		c1.61-0.8,3.42-1.21,5.43-1.21c1.51,0,2.93,0.23,4.25,0.69c1.33,0.46,2.5,1.12,3.53,1.97c1.03,0.85,1.88,1.88,2.57,3.09
		c0.68,1.21,1.16,2.54,1.41,4.01h10.43c-0.19-2.79-0.89-5.36-2.1-7.7c-1.21-2.34-2.79-4.36-4.75-6.06
		c-1.96-1.71-4.25-3.04-6.88-3.99c-2.62-0.96-5.45-1.44-8.47-1.44c-3.71,0-7.06,0.62-10.02,1.86c-2.97,1.24-5.49,3.02-7.55,5.33
		c-2.07,2.32-3.66,5.14-4.77,8.46c-1.11,3.32-1.67,7.06-1.67,11.23c0,4.16,0.55,7.9,1.67,11.24c1.11,3.33,2.7,6.15,4.77,8.47
		s4.59,4.1,7.55,5.33c2.97,1.24,6.31,1.87,10.02,1.87C728.85,384.01,731.7,383.55,734.32,382.64 M666.21,331.53h-10.71v51.17h10.71
		V331.53z M606.54,382.64c2.62-0.91,4.91-2.19,6.86-3.83c1.95-1.64,3.53-3.61,4.72-5.9c1.19-2.3,1.9-4.82,2.11-7.59H609.8
		c-0.26,1.41-0.73,2.69-1.42,3.83c-0.68,1.13-1.54,2.1-2.55,2.91c-1.02,0.8-2.19,1.43-3.51,1.87c-1.33,0.43-2.76,0.65-4.29,0.65
		c-2.03,0-3.86-0.41-5.46-1.23c-1.61-0.81-2.97-1.97-4.11-3.47c-1.13-1.5-2-3.33-2.61-5.49c-0.6-2.16-0.9-4.59-0.9-7.29
		c0-2.7,0.3-5.12,0.9-7.27c0.6-2.15,1.47-3.98,2.61-5.49c1.14-1.51,2.51-2.67,4.11-3.47c1.61-0.8,3.42-1.21,5.43-1.21
		c1.51,0,2.93,0.23,4.26,0.69c1.32,0.46,2.5,1.12,3.53,1.97c1.03,0.85,1.89,1.88,2.57,3.09c0.69,1.21,1.16,2.54,1.42,4.01h10.42
		c-0.19-2.79-0.88-5.36-2.09-7.7c-1.21-2.34-2.79-4.36-4.75-6.06c-1.96-1.71-4.26-3.04-6.88-3.99c-2.63-0.96-5.45-1.44-8.48-1.44
		c-3.71,0-7.05,0.62-10.02,1.86s-5.49,3.02-7.55,5.33c-2.07,2.32-3.66,5.14-4.77,8.46c-1.11,3.32-1.67,7.06-1.67,11.23
		c0,4.16,0.56,7.9,1.67,11.24c1.11,3.33,2.71,6.15,4.77,8.47c2.07,2.32,4.59,4.1,7.55,5.33c2.97,1.24,6.3,1.87,10.02,1.87
		C601.06,384.01,603.91,383.55,606.54,382.64 M538.42,331.53h-10.71v51.17h10.71V331.53z M476.51,382.69l17.06-51.17h-11.52
		l-11.42,39.11h-0.64l-11.63-39.11h-12.09l17.3,51.17H476.51z"/>
	<path class="st0" d="M625.03,255.01h0.64l6.35,20.07h-13.4L625.03,255.01z M638.15,295.54h11.59l-17.76-51.17h-12.59l-17.76,51.17
		h10.74l3.94-12.2h17.98L638.15,295.54z M532.7,280.51c0,2.51,0.41,4.77,1.23,6.79c0.83,2.02,2,3.74,3.51,5.15
		c1.51,1.42,3.35,2.51,5.49,3.27c2.14,0.75,4.52,1.13,7.14,1.13c2.72,0,5.15-0.38,7.3-1.13c2.15-0.76,3.98-1.87,5.46-3.34
		c1.49-1.46,2.63-3.26,3.42-5.38c0.79-2.13,1.18-4.58,1.18-7.34v-35.28h-10.71v35.21c0,2.53-0.57,4.44-1.74,5.74
		c-1.16,1.31-2.84,1.95-5.07,1.95c-2.08,0-3.73-0.61-4.96-1.82c-1.23-1.22-1.87-2.86-1.92-4.95H532.7z M465.25,295.54v-32.02h0.64
		l23.62,32.02h8.86v-51.17h-10.25v31.88h-0.64l-23.55-31.88h-8.93v51.17H465.25z"/>
	<g>
		<path class="st0" d="M206.95,255.16c-0.75-0.69-1.66-1.21-2.74-1.58c-1.07-0.37-2.28-0.55-3.6-0.55h-9.29v15.74h9.4
			c2.72,0,4.82-0.68,6.31-2.05c1.49-1.37,2.23-3.3,2.23-5.78c0-1.21-0.2-2.3-0.6-3.28C208.26,256.67,207.7,255.84,206.95,255.16z"/>
		<path class="st0" d="M141.14,257.74c-1.26-1.39-2.81-2.46-4.65-3.17c-1.83-0.72-3.91-1.08-6.22-1.08h-7.73v32.91h7.73
			c4.75,0,8.41-1.41,10.96-4.24c2.55-2.83,3.83-6.96,3.83-12.39c0-2.58-0.34-4.88-1.01-6.9
			C143.38,260.84,142.41,259.14,141.14,257.74z"/>
		<polygon class="st0" points="391.7,255.01 391.06,255.01 384.64,275.09 398.04,275.09 		"/>
		<polygon class="st0" points="385.97,342.16 379.55,362.24 392.96,362.24 386.61,342.16 		"/>
		<path class="st0" d="M230.3,70.51c-119.54,0-216.44,96.91-216.44,216.45c0,119.54,96.9,216.44,216.44,216.44
			s216.44-96.91,216.44-216.44C446.74,167.42,349.84,70.51,230.3,70.51z M154.39,280.67c-1.06,3.23-2.62,5.94-4.66,8.14
			c-2.05,2.2-4.56,3.87-7.54,5.02c-2.98,1.15-6.38,1.72-10.21,1.72h-20.15v-51.2h20.15c3.81,0,7.19,0.56,10.17,1.69
			c2.98,1.12,5.49,2.76,7.54,4.93c2.05,2.16,3.6,4.81,4.68,7.95c1.08,3.13,1.61,6.69,1.61,10.69
			C155.98,273.75,155.45,277.44,154.39,280.67z M209.63,295.54L200.09,277h-8.76v18.54h-10.71v-51.17h21.5
			c2.81,0,5.34,0.38,7.59,1.13c2.24,0.75,4.14,1.85,5.71,3.26c1.56,1.42,2.76,3.14,3.6,5.16c0.84,2.02,1.26,4.31,1.26,6.86
			c0,1.63-0.21,3.19-0.62,4.7c-0.42,1.5-1.02,2.89-1.81,4.15c-0.79,1.26-1.77,2.38-2.92,3.35c-1.16,0.97-2.47,1.75-3.94,2.34
			l10.78,20.21H209.63z M385.42,244.37h12.59l17.77,51.17h-11.6l-3.86-12.2h-17.98l-3.93,12.2h-10.75L385.42,244.37z M252.01,292.81
			c-0.29,0.75-0.71,1.41-1.26,1.95c-0.55,0.55-1.21,0.97-1.98,1.28c-0.78,0.3-1.64,0.46-2.59,0.46s-1.8-0.16-2.57-0.46
			c-0.77-0.31-1.43-0.73-1.99-1.28c-0.55-0.55-0.98-1.2-1.28-1.95c-0.29-0.75-0.44-1.59-0.44-2.48s0.14-1.72,0.44-2.46
			c0.3-0.75,0.73-1.39,1.28-1.93c0.56-0.55,1.22-0.97,1.99-1.28c0.77-0.31,1.62-0.46,2.57-0.46s1.81,0.15,2.59,0.46
			c0.78,0.31,1.44,0.73,1.98,1.28c0.55,0.55,0.96,1.18,1.26,1.93c0.3,0.75,0.45,1.57,0.45,2.46S252.31,292.06,252.01,292.81z
			 M329.25,374.33c-0.95,2.05-2.33,3.8-4.13,5.23c-1.79,1.43-3.97,2.53-6.53,3.3c-2.56,0.77-5.43,1.15-8.65,1.15
			c-3.05,0-5.82-0.36-8.3-1.08c-2.48-0.73-4.61-1.76-6.38-3.1c-1.77-1.35-3.16-2.98-4.16-4.9c-1.01-1.92-1.56-4.06-1.65-6.45h10.35
			c0.12,1.04,0.47,1.98,1.03,2.82c0.57,0.84,1.31,1.55,2.25,2.14c0.93,0.6,2.02,1.05,3.28,1.37c1.26,0.32,2.63,0.47,4.15,0.47
			c1.39,0,2.67-0.16,3.83-0.47c1.16-0.32,2.16-0.77,3-1.35c0.84-0.58,1.49-1.27,1.97-2.07s0.71-1.69,0.71-2.66
			c0-0.8-0.17-1.54-0.5-2.2c-0.34-0.66-0.85-1.25-1.57-1.77c-0.71-0.52-1.62-0.98-2.75-1.4c-1.12-0.41-2.46-0.78-4.02-1.11
			l-6.67-1.42c-9.27-1.94-13.9-6.81-13.9-14.61c0-2.41,0.47-4.59,1.4-6.56c0.93-1.96,2.25-3.65,3.96-5.05
			c1.7-1.4,3.75-2.48,6.17-3.24c2.41-0.76,5.1-1.14,8.06-1.14c2.81,0,5.4,0.38,7.76,1.14c2.36,0.75,4.41,1.81,6.14,3.17
			c1.72,1.36,3.08,2.98,4.08,4.87c0.99,1.89,1.52,3.97,1.59,6.24H319.7c-0.11-1.01-0.44-1.94-0.95-2.76c-0.52-0.83-1.19-1.54-2-2.13
			c-0.82-0.59-1.77-1.04-2.87-1.36c-1.1-0.32-2.3-0.47-3.6-0.47c-1.34,0-2.56,0.14-3.65,0.44c-1.09,0.3-2.02,0.73-2.81,1.28
			c-0.78,0.56-1.38,1.23-1.8,2.02c-0.43,0.79-0.64,1.67-0.64,2.64c0,1.58,0.65,2.86,1.97,3.83c1.31,0.97,3.47,1.77,6.47,2.41
			l6.17,1.31c2.57,0.55,4.79,1.23,6.65,2.07c1.85,0.84,3.38,1.85,4.57,3.03c1.19,1.18,2.07,2.56,2.64,4.11
			c0.57,1.56,0.85,3.33,0.85,5.32C330.69,369.95,330.21,372.27,329.25,374.33z M334.34,287.18c-0.95,2.05-2.33,3.8-4.13,5.23
			c-1.79,1.43-3.97,2.53-6.53,3.3c-2.56,0.77-5.43,1.15-8.65,1.15c-3.05,0-5.82-0.36-8.3-1.08c-2.48-0.73-4.61-1.76-6.38-3.1
			c-1.77-1.35-3.16-2.98-4.16-4.9s-1.56-4.06-1.65-6.45h10.35c0.12,1.04,0.47,1.98,1.03,2.82c0.57,0.84,1.31,1.55,2.25,2.14
			c0.93,0.6,2.02,1.05,3.28,1.37c1.26,0.32,2.63,0.47,4.15,0.47c1.39,0,2.67-0.16,3.83-0.47c1.16-0.32,2.16-0.77,3-1.35
			c0.84-0.58,1.49-1.27,1.97-2.07c0.47-0.8,0.71-1.69,0.71-2.66c0-0.8-0.17-1.54-0.5-2.2c-0.34-0.66-0.85-1.25-1.57-1.77
			c-0.71-0.52-1.62-0.98-2.75-1.4c-1.12-0.41-2.46-0.78-4.02-1.11l-6.67-1.42c-9.27-1.94-13.9-6.81-13.9-14.61
			c0-2.41,0.47-4.59,1.4-6.56c0.93-1.96,2.25-3.65,3.96-5.05c1.7-1.4,3.75-2.48,6.17-3.24c2.41-0.76,5.1-1.14,8.06-1.14
			c2.81,0,5.4,0.38,7.76,1.14c2.36,0.75,4.41,1.81,6.14,3.17c1.72,1.36,3.08,2.98,4.08,4.87c0.99,1.89,1.52,3.97,1.59,6.24h-10.07
			c-0.11-1.01-0.44-1.94-0.95-2.76c-0.52-0.83-1.19-1.54-2-2.13c-0.82-0.59-1.77-1.04-2.87-1.36c-1.1-0.32-2.3-0.47-3.6-0.47
			c-1.34,0-2.56,0.14-3.65,0.44c-1.09,0.3-2.02,0.73-2.81,1.28c-0.78,0.56-1.38,1.23-1.8,2.02c-0.43,0.79-0.64,1.67-0.64,2.64
			c0,1.58,0.65,2.86,1.97,3.83c1.31,0.97,3.47,1.77,6.47,2.41l6.17,1.31c2.57,0.55,4.79,1.23,6.65,2.07
			c1.85,0.84,3.38,1.85,4.57,3.03c1.19,1.18,2.07,2.56,2.64,4.11c0.57,1.56,0.85,3.33,0.85,5.32
			C335.78,282.8,335.3,285.12,334.34,287.18z M399.09,382.7l-3.86-12.2h-17.98l-3.93,12.2h-10.75l17.77-51.17h12.59l17.77,51.17
			H399.09z"/>
	</g>
	<path class="st1" d="M792.29,446.77c-2.33,0-4.59-1.51-4.59-4.75c0-1.28,0.52-2.63,1.39-3.61c2.9,2.45,4.66,3.86,7.26,6.42
		c-0.84,1.01-2.56,1.94-4.01,1.94H792.29z M791.9,428.5c1.69,0,2.63,1.67,2.63,3.4c-0.04,2.05-0.85,3.42-1.74,4.11
		c-2.33-1.77-3.22-2.85-3.22-4.52c0-1.56,0.98-2.99,2.28-2.99H791.9z M807.01,435.17h-8.08v1.11c2.38,0.34,2.58,0.85,1.9,2.26
		c-0.52,1.14-1.11,2.1-1.69,2.97c-2.46-2.3-4.42-3.98-5.34-4.7c1.06-0.73,2.01-1.39,2.72-1.99c0.88-0.73,1.44-1.55,1.44-2.71
		c0-2.81-2.33-4.91-5.75-4.91c-3.34,0-6.17,2.65-6.17,5.64c0,1.97,0.87,3.45,2.19,4.7c-2.94,2.03-4.7,3.25-4.7,6.07
		c0,2.88,2.51,6.23,7.15,6.23c2.21,0,4.45-1.28,6.57-4.01c1.3,1.26,2.3,2.4,2.76,2.83c0.43,0.43,2.49,1.23,5.84,1.18l0.18-0.37
		c-1.57-2.4-3.72-5.02-5.93-7.03c1.05-1.44,1.94-2.74,2.87-3.93c1.23-1.57,1.97-2.03,4.04-2.24V435.17z M766.44,443.5
		c-0.62,1.51-1.26,2.61-1.92,3.34c-0.8,0.87-2.1,1.05-3.78,1.05c-1.26,0-2.54-0.04-3.13-0.32c-0.71-0.3-0.83-1.17-0.83-2.76v-5.66
		h2.33c2.87,0,3.35,0.14,3.79,2.53h1.23v-6.77h-1.23c-0.44,2.32-0.92,2.53-3.79,2.53h-2.33v-7.09c0-1.09,0.09-1.16,1.41-1.16h1.74
		c1.8,0,2.72,0.25,3.33,0.85c0.62,0.59,1.12,1.75,1.41,2.91l1.23-0.16c-0.14-2.17-0.29-4.49-0.32-5.08h-16.16v1.18
		c2.46,0.21,2.79,0.37,2.79,3.32v12.68c0,2.88-0.32,3.07-3.29,3.32v1.18h17.5c0.27-1.01,0.98-4.09,1.21-5.61L766.44,443.5z
		 M732.66,449.4v-1.18c-2.56-0.25-2.86-0.44-2.86-3.31v-12.72c0-2.86,0.3-3.06,2.86-3.29v-1.18h-10.27v1.18
		c2.56,0.23,2.9,0.43,2.9,3.29v12.72c0,2.87-0.34,3.06-2.9,3.31v1.18H732.66z M689.76,431.49c0-0.95,0.06-1.57,0.36-1.89
		c0.23-0.23,0.96-0.5,2.29-0.5c2.48,0,4.36,0.73,5.82,2.12c1.59,1.51,2.62,4.06,2.62,7.14c0,5.75-3.19,9.53-8.03,9.53
		c-2.58,0-3.06-0.82-3.06-3.24V431.49z M682.48,427.71v1.18c2.42,0.23,2.76,0.43,2.76,3.29v12.72c0,2.87-0.34,3.06-3.06,3.31v1.18
		h8.92c4.29,0,7.93-0.93,10.48-2.79c2.67-1.96,4.36-4.88,4.36-8.94c0-3.19-1.37-5.54-3.08-7.11c-2.23-2.03-5.59-2.85-9.86-2.85
		H682.48z M656.17,440.42h-5.39c0.87-2.37,1.78-4.79,2.74-7.19h0.09L656.17,440.42z M666.35,449.4v-1.18
		c-2.19-0.27-2.65-0.73-3.79-3.68c-2.23-5.7-4.36-11.52-6.55-17.35l-1.76,0.43l-7.01,17.03c-1.17,2.88-1.53,3.3-3.86,3.57
		l-0.04,1.18h7.65v-1.18c-2.49-0.32-2.56-0.8-2.05-2.33c0.39-1.35,0.87-2.58,1.26-3.68h6.62c0.57,1.44,1.09,2.88,1.44,3.86
		c0.5,1.41,0.37,1.8-1.67,2.15v1.18H666.35z M651.51,421.77c-1.18,0-2.25,0.96-2.25,2.22c0,1.21,1.07,2.23,2.25,2.23
		c1.35,0,2.33-1.03,2.33-2.23c0-1.26-0.98-2.22-2.28-2.22H651.51z M658.63,421.77c-1.18,0-2.25,0.96-2.25,2.22
		c0,1.21,1.07,2.23,2.25,2.23c1.33,0,2.33-1.03,2.33-2.23c0-1.26-1-2.22-2.28-2.22H658.63z M620.68,430.4c0-0.5,0.09-0.85,0.29-1.03
		c0.21-0.19,0.64-0.34,1.31-0.34c2.12,0,4.29,1.23,4.29,4.95c0,4.49-2.7,5.38-4,5.38c-0.73,0-1.51-0.16-1.9-0.32V430.4z
		 M613.49,427.71v1.18c2.39,0.23,2.74,0.43,2.74,3.28v12.72c0,2.88-0.34,3.07-2.94,3.32v1.18h10.68v-1.18
		c-2.97-0.25-3.29-0.44-3.29-3.32v-4.54l2.4,0.57c0.37,0,0.91,0,1.46-0.07c3.49-0.43,6.86-2.43,6.86-6.95c0-2.14-0.89-3.78-2.46-4.9
		c-1.32-0.93-3.29-1.3-5.94-1.3H613.49z M584.67,428.62c4.11,0,7.1,3.93,7.1,10.6c0,6.16-2.87,9.25-6.23,9.25
		c-4.54,0-7.35-4.8-7.35-10.5c0-5.92,2.94-9.34,6.46-9.34H584.67z M585.31,427.18c-7.92,0-12.31,5.54-12.31,11.36
		c0,6.42,4.93,11.37,11.87,11.37c6.6,0,12.08-4.41,12.08-11.64c0-6.58-5.3-11.09-11.62-11.09H585.31z M556.58,427.71h-10.27v1.18
		c2.62,0.23,2.85,0.43,2.85,3.28v4.85h-9.66v-4.85c0-2.85,0.25-3.05,2.79-3.28v-1.18h-10.27v1.18c2.65,0.23,2.97,0.43,2.97,3.28
		v12.72c0,2.88-0.32,3.07-2.84,3.32v1.18h10.16v-1.18c-2.56-0.25-2.81-0.44-2.81-3.32v-6.14h9.66v6.14c0,2.88-0.23,3.07-3.02,3.32
		v1.18h10.48v-1.18c-2.63-0.25-2.9-0.44-2.9-3.32v-12.72c0-2.85,0.16-3.05,2.85-3.28V427.71z M515.89,433.45
		c-0.17-2.12-0.37-5.18-0.39-6.59h-0.8c-0.62,0.65-1.07,0.85-2.01,0.85h-14.01c-0.98,0-1.44-0.06-1.97-0.85h-0.84
		c-0.06,1.72-0.25,4.2-0.39,6.68h1.26c0.43-1.69,0.86-2.85,1.46-3.42c0.48-0.52,1.03-0.94,4.14-0.94h1.1v15.72
		c0,2.87-0.37,3.06-3.27,3.31v1.18h11.21v-1.18c-3.04-0.25-3.4-0.44-3.4-3.31v-15.72h1.51c2.19,0,3.02,0.21,3.65,0.8
		c0.59,0.64,1.14,1.8,1.53,3.53L515.89,433.45z M467.66,438.76v-8.13c0-0.66,0.07-1.02,0.3-1.23c0.25-0.21,0.7-0.37,1.59-0.37
		c1.95,0,4.05,1.3,4.05,4.85c0,1.69-0.48,2.99-1.65,3.98c-0.75,0.66-1.96,0.89-3.45,0.89H467.66z M481.57,448.58
		c-0.8-0.28-1.33-0.62-2.03-1.37c-0.66-0.71-1.41-1.81-2.63-3.65c-1.03-1.53-2.28-3.75-2.78-4.72c2.25-0.87,4.24-2.46,4.24-5.43
		c0-2.05-0.94-3.53-2.26-4.44c-1.39-0.93-3.12-1.26-6.21-1.26h-9.47v1.18c2.48,0.21,2.83,0.6,2.83,3.26v12.74
		c0,2.74-0.43,3.04-2.97,3.32v1.18h10.29v-1.18c-2.58-0.27-2.92-0.57-2.92-3.32v-4.82h0.67c1.09,0,1.73,0.42,2.3,1.39
		c1.01,1.78,1.9,3.57,2.79,4.93c1.37,2.1,2.69,3.06,7.03,3.27c0.39,0,0.75,0.02,0.91,0.02L481.57,448.58z M431.7,428.62
		c4.11,0,7.1,3.93,7.1,10.6c0,6.16-2.88,9.25-6.23,9.25c-4.54,0-7.35-4.8-7.35-10.5c0-5.92,2.94-9.34,6.46-9.34H431.7z
		 M432.34,427.18c-7.93,0-12.31,5.54-12.31,11.36c0,6.42,4.93,11.37,11.87,11.37c6.6,0,12.08-4.41,12.08-11.64
		c0-6.58-5.3-11.09-11.62-11.09H432.34z"/>
	<path class="st1" d="M824.92,492.09c-0.62,1.51-1.26,2.61-1.92,3.33c-0.8,0.87-2.1,1.06-3.79,1.06c-1.26,0-2.53-0.05-3.12-0.32
		c-0.71-0.29-0.83-1.16-0.83-2.76v-5.66h2.33c2.87,0,3.35,0.14,3.79,2.54h1.23v-6.78h-1.23c-0.44,2.33-0.92,2.53-3.79,2.53h-2.33
		v-7.08c0-1.1,0.09-1.16,1.41-1.16h1.74c1.8,0,2.72,0.25,3.33,0.84c0.62,0.6,1.12,1.76,1.41,2.91l1.23-0.16
		c-0.14-2.16-0.29-4.49-0.32-5.08h-16.16v1.18c2.47,0.2,2.79,0.36,2.79,3.32v12.68c0,2.88-0.32,3.06-3.28,3.31v1.18h17.5
		c0.27-1,0.98-4.09,1.21-5.61L824.92,492.09z M791.15,497.98v-1.18c-2.56-0.25-2.86-0.43-2.86-3.3v-12.73c0-2.85,0.3-3.06,2.86-3.28
		v-1.18h-10.27v1.18c2.56,0.22,2.9,0.43,2.9,3.28v12.73c0,2.87-0.34,3.05-2.9,3.3v1.18H791.15z M764.7,487.64h-10.3v1.16
		c3.63,0.34,3.84,0.6,3.84,3.04v2.94c0,1.03-0.34,1.6-0.83,1.9c-0.5,0.3-1.34,0.42-2.03,0.42c-5.94,0-8.51-5.37-8.51-10.32
		c0-5.96,3.65-9.57,7.9-9.57c3.38,0,6.07,1.64,6.83,5.41l1.26-0.27c-0.25-2.71-0.44-4.47-0.52-5.61c-1.23-0.25-4-0.95-6.85-0.95
		c-7.35,0-13.77,3.99-13.77,11.57c0,6.78,5.3,11.16,13.33,11.16c2.76,0,5.84-0.8,7.95-1.25c-0.21-0.87-0.23-1.95-0.23-3.13v-2.56
		c0-2.26,0.23-2.42,1.94-2.76V487.64z M711.84,477.2c4.11,0,7.1,3.93,7.1,10.6c0,6.17-2.88,9.25-6.23,9.25
		c-4.54,0-7.36-4.8-7.36-10.5c0-5.91,2.95-9.34,6.47-9.34H711.84z M712.48,475.77c-7.93,0-12.31,5.54-12.31,11.36
		c0,6.42,4.93,11.36,11.87,11.36c6.61,0,12.08-4.4,12.08-11.64c0-6.58-5.29-11.09-11.62-11.09H712.48z M683.32,491.87
		c-0.69,1.73-1.31,2.79-1.95,3.49c-0.8,0.89-2.05,1.12-3.51,1.12c-1.08,0-1.97-0.02-2.61-0.25c-0.71-0.3-0.82-0.87-0.82-2.44v-13.02
		c0-2.85,0.32-3.06,2.94-3.28v-1.18h-10.47v1.18c2.64,0.22,3.01,0.43,3.01,3.28v12.7c0,2.9-0.37,3.08-3.4,3.33v1.18h16.73
		c0.25-0.93,0.98-4.29,1.26-5.74L683.32,491.87z M638.35,477.2c4.11,0,7.1,3.93,7.1,10.6c0,6.17-2.87,9.25-6.23,9.25
		c-4.54,0-7.35-4.8-7.35-10.5c0-5.91,2.94-9.34,6.46-9.34H638.35z M638.99,475.77c-7.92,0-12.3,5.54-12.3,11.36
		c0,6.42,4.93,11.36,11.87,11.36c6.6,0,12.08-4.4,12.08-11.64c0-6.58-5.29-11.09-11.62-11.09H638.99z M611.16,482.04
		c-0.17-2.12-0.37-5.18-0.39-6.59h-0.8c-0.62,0.64-1.07,0.85-2.01,0.85h-14.01c-0.98,0-1.44-0.07-1.97-0.85h-0.84
		c-0.06,1.71-0.25,4.19-0.39,6.68H592c0.43-1.69,0.87-2.85,1.46-3.42c0.48-0.52,1.03-0.93,4.14-0.93h1.1v15.72
		c0,2.87-0.37,3.05-3.27,3.3v1.18h11.21v-1.18c-3.04-0.25-3.4-0.43-3.4-3.3v-15.72h1.51c2.19,0,3.02,0.21,3.65,0.8
		c0.59,0.64,1.14,1.8,1.53,3.54L611.16,482.04z M567.45,489.01h-5.38c0.86-2.38,1.78-4.8,2.74-7.19h0.09L567.45,489.01z
		 M577.63,497.98v-1.18c-2.19-0.27-2.65-0.73-3.79-3.68c-2.23-5.71-4.36-11.53-6.55-17.35l-1.76,0.43l-7.01,17.03
		c-1.16,2.88-1.53,3.29-3.86,3.56l-0.05,1.18h7.65v-1.18c-2.48-0.32-2.56-0.8-2.05-2.33c0.39-1.35,0.87-2.58,1.26-3.68h6.62
		c0.57,1.44,1.1,2.87,1.44,3.86c0.5,1.41,0.37,1.81-1.67,2.15v1.18H577.63z M538.98,497.98v-1.18c-2.74-0.27-2.86-0.57-2.92-3.67
		l-0.34-12.25c-0.07-2.83,0.06-3.12,2.83-3.4v-1.18h-6.83l-6.85,14.68l-6.72-14.68h-7.05v1.18c2.97,0.27,3.22,0.78,2.92,4.58
		l-0.52,6.39c-0.27,3.63-0.52,5.31-0.73,6.38c-0.23,1.16-0.89,1.78-2.83,1.96v1.18h8.29v-1.18c-2.3-0.2-2.92-0.5-3.11-1.96
		c-0.11-1.07-0.16-2.62-0.02-5.38l0.46-8.73h0.14l7.08,17.06h0.91l7.67-17.33h0.18l0.05,12.68c0.04,3.1-0.16,3.4-2.72,3.67v1.18
		H538.98z M495.5,476.29h-8.61v1.18c2.33,0.14,3.13,0.84,3.31,2c0.21,1.03,0.37,2.28,0.37,4.54v3.42c0,5.61-1.76,8.78-5.98,8.78
		c-3.75,0-5.64-3.1-5.64-8.14v-6.94c0-3.24,0.37-3.45,2.92-3.67v-1.18h-10.38v1.18c2.56,0.22,2.92,0.43,2.92,3.67v7.69
		c0,3.9,0.98,6.45,2.94,7.95c1.62,1.21,3.79,1.71,6.07,1.71c2.4,0,4.75-0.86,6.33-2.44c1.96-2,2.53-4.79,2.53-8.41v-3.63
		c0-2.25,0.11-3.51,0.3-4.52c0.18-1.18,1.05-1.91,2.92-2.02V476.29z M447.73,489.01h-5.38c0.86-2.38,1.78-4.8,2.74-7.19h0.09
		L447.73,489.01z M457.91,497.98v-1.18c-2.19-0.27-2.65-0.73-3.79-3.68c-2.23-5.71-4.36-11.53-6.55-17.35l-1.76,0.43l-7.01,17.03
		c-1.16,2.88-1.53,3.29-3.86,3.56l-0.05,1.18h7.65v-1.18c-2.48-0.32-2.56-0.8-2.05-2.33c0.39-1.35,0.87-2.58,1.26-3.68h6.62
		c0.57,1.44,1.1,2.87,1.44,3.86c0.5,1.41,0.37,1.81-1.67,2.15v1.18H457.91z M405.91,487.34v-8.13c0-0.66,0.07-1.03,0.3-1.23
		c0.25-0.2,0.7-0.36,1.59-0.36c1.95,0,4.05,1.3,4.05,4.85c0,1.68-0.48,2.98-1.65,3.98c-0.75,0.66-1.96,0.89-3.45,0.89H405.91z
		 M419.82,497.16c-0.8-0.27-1.33-0.62-2.03-1.37c-0.66-0.7-1.41-1.8-2.63-3.65c-1.03-1.53-2.28-3.74-2.78-4.72
		c2.25-0.86,4.24-2.46,4.24-5.42c0-2.05-0.94-3.53-2.26-4.44c-1.39-0.93-3.12-1.25-6.21-1.25h-9.47v1.18
		c2.48,0.2,2.83,0.59,2.83,3.25v12.75c0,2.74-0.43,3.04-2.97,3.31v1.18h10.29v-1.18c-2.58-0.27-2.92-0.57-2.92-3.31v-4.82h0.67
		c1.09,0,1.73,0.41,2.3,1.39c1.01,1.78,1.9,3.56,2.79,4.93c1.37,2.1,2.69,3.06,7.03,3.26c0.39,0,0.75,0.03,0.91,0.03L419.82,497.16z
		 M382.42,482.04c-0.16-2.12-0.37-5.18-0.39-6.59h-0.8c-0.62,0.64-1.08,0.85-2.01,0.85H365.2c-0.98,0-1.44-0.07-1.96-0.85h-0.84
		c-0.07,1.71-0.25,4.19-0.39,6.68h1.25c0.44-1.69,0.87-2.85,1.46-3.42c0.47-0.52,1.03-0.93,4.13-0.93h1.1v15.72
		c0,2.87-0.37,3.05-3.27,3.3v1.18h11.21v-1.18c-3.04-0.25-3.4-0.43-3.4-3.3v-15.72h1.5c2.2,0,3.02,0.21,3.65,0.8
		c0.6,0.64,1.14,1.8,1.53,3.54L382.42,482.04z"/>
</g>
</svg>
