<svg id="visual" viewBox="0 0 900 600" width="900" height="600" xmlns="http://www.w3.org/2000/svg" xmlns:xlink="http://www.w3.org/1999/xlink" version="1.1"><rect x="0" y="0" width="900" height="600" fill="#fff"></rect><path d="M0 179L15 174.7C30 170.3 60 161.7 90 152.3C120 143 150 133 180 129.5C210 126 240 129 270 135C300 141 330 150 360 148.8C390 147.7 420 136.3 450 137.2C480 138 510 151 540 151C570 151 600 138 630 136.2C660 134.3 690 143.7 720 151C750 158.3 780 163.7 810 161.2C840 158.7 870 148.3 885 143.2L900 138L900 0L885 0C870 0 840 0 810 0C780 0 750 0 720 0C690 0 660 0 630 0C600 0 570 0 540 0C510 0 480 0 450 0C420 0 390 0 360 0C330 0 300 0 270 0C240 0 210 0 180 0C150 0 120 0 90 0C60 0 30 0 15 0L0 0Z" fill="#91ccf4" stroke-linecap="round" stroke-linejoin="miter"></path></svg>