<?xml version="1.0" encoding="utf-8"?>
<!-- Generator: Adobe Illustrator 24.2.1, SVG Export Plug-In . SVG Version: 6.00 Build 0)  -->
<svg version="1.1" id="Ebene_1" xmlns="http://www.w3.org/2000/svg" xmlns:xlink="http://www.w3.org/1999/xlink" x="0px" y="0px"
	 viewBox="0 0 283.46 283.46" style="enable-background:new 0 0 283.46 283.46;" xml:space="preserve">
<style type="text/css">
	.st0{fill:#9D82AF;}
	.st1{clip-path:url(#SVGID_2_);fill:#FFFFFF;}
</style>
<g>
	<path class="st0" d="M141.53,273.12c72.12,0,130.59-58.47,130.59-130.59S213.65,11.95,141.53,11.95S10.94,70.41,10.94,142.53
		S69.41,273.12,141.53,273.12"/>
</g>
<g>
	<defs>
		<circle id="SVGID_1_" cx="141.53" cy="142.53" r="130.58"/>
	</defs>
	<clipPath id="SVGID_2_">
		<use xlink:href="#SVGID_1_"  style="overflow:visible;"/>
	</clipPath>
	<path class="st1" d="M33.48,17.49c19.2,0,35.96,0.07,52.72-0.05c3.87-0.02,6.11,1.95,8.27,4.74c6.36,8.24,13.13,16.18,19.26,24.59
		c6.04,8.28,13.91,13.22,23.7,15.87c6.44,1.74,12.81,4.05,18.88,6.81c7.05,3.2,11.8,8.76,13.55,16.54
		c2.48,10.98-0.77,19.88-11.08,24.26c-13.76,5.85-24.95,14.37-33.42,26.52c-10.01,14.35-38.4,9.91-43.36-8.38
		c-2.13-7.88-2.54-16.62-1.75-24.78c0.72-7.42,0.23-14.17-3.56-20.29c-10.76-17.4-21.82-34.61-32.9-51.82
		C41.11,27.35,37.93,23.51,33.48,17.49"/>
	<path class="st1" d="M113.95,267.62H69.04c4.24-14.87,6.26-29.59,13.88-42.52c2.17-3.69,5.2-7.05,8.42-9.91
		c9.44-8.39,13.69-18.59,9.57-30.68c-4.1-12.04-14.18-17.32-26.17-19.29c-2.89-0.47-5.87-0.44-8.84-0.64
		c2.07-12.41,10.66-18.02,21.41-14.3c1.9,0.66,3.66,1.7,5.54,2.4c12.67,4.76,24.45,3.41,34.9-5.5c3.82-3.26,7.18-7.06,10.85-10.51
		c8.85-8.32,18.5-7.64,26.11,1.76c11.06,13.68,10.46,29.18-2.18,41.61c-5,4.92-10.58,9.43-16.51,13.16
		c-10.9,6.84-17.54,16.5-20.76,28.63c-3.27,12.32-6.14,24.76-9.18,37.15C115.38,261.86,114.67,264.74,113.95,267.62"/>
	<path class="st1" d="M60.27,267.63h-7.34c-0.17-1.31-0.55-2.29-0.38-3.15c3.55-18.05,7.5-36.03,10.62-54.15
		c1.57-9.13,2.03-18.51,2.3-27.8c0.24-8.26,2.09-10.44,10.15-8.71c7.86,1.69,14.82,5.41,17.47,13.48c2.65,8.04,0.14,15.28-6.46,20.7
		c-10.34,8.49-15.43,19.98-18.96,32.4C65.12,249.37,62.77,258.4,60.27,267.63"/>
	<path class="st1" d="M172.9,64.48c2.48,1.85,5.44,3.29,7.35,5.61c11.94,14.48,18.45,30.9,16.66,49.97
		c-0.31,3.28-1.09,6.63-2.32,9.68c-3.29,8.15-9.15,11.43-16.36,9.65c-7.29-1.81-14-9.8-13.48-16.71c0.15-2.05,1.41-4.55,2.99-5.87
		c12.5-10.51,12.53-23.47,7.75-37.44c-1.47-4.29-3.25-8.48-4.89-12.71C171.36,65.93,172.13,65.21,172.9,64.48"/>
</g>
</svg>
